<mxfile host="app.diagrams.net" modified="2022-12-07T13:50:18.727Z" agent="5.0 (Macintosh; Intel Mac OS X 10_15_7) AppleWebKit/537.36 (KHTML, like Gecko) Chrome/108.0.0.0 Safari/537.36" version="20.6.0" etag="d_R1Tr33fB_V6txioBLJ" type="github">
  <diagram id="HtYaV8gFSbHZXaHOkYad" name="第 1 页">
    <mxGraphModel dx="1183" dy="808" grid="1" gridSize="10" guides="1" tooltips="1" connect="1" arrows="1" fold="1" page="1" pageScale="1" pageWidth="827" pageHeight="1169" math="0" shadow="0">
      <root>
        <mxCell id="0" />
        <mxCell id="1" parent="0" />
        <mxCell id="dOTpAhQKceL1h4nZkwgp-1" value="当前的强分信息" style="rounded=0;whiteSpace=wrap;html=1;" vertex="1" parent="1">
          <mxGeometry x="20" y="60" width="630" height="70" as="geometry" />
        </mxCell>
        <mxCell id="dOTpAhQKceL1h4nZkwgp-23" style="edgeStyle=orthogonalEdgeStyle;rounded=0;orthogonalLoop=1;jettySize=auto;html=1;exitX=0.5;exitY=1;exitDx=0;exitDy=0;entryX=0;entryY=0.5;entryDx=0;entryDy=0;" edge="1" parent="1" source="dOTpAhQKceL1h4nZkwgp-2" target="dOTpAhQKceL1h4nZkwgp-8">
          <mxGeometry relative="1" as="geometry">
            <mxPoint x="940" y="380" as="targetPoint" />
            <Array as="points">
              <mxPoint x="580" y="260" />
              <mxPoint x="917" y="260" />
            </Array>
          </mxGeometry>
        </mxCell>
        <mxCell id="dOTpAhQKceL1h4nZkwgp-24" value="按钮操作" style="edgeLabel;html=1;align=center;verticalAlign=middle;resizable=0;points=[];" vertex="1" connectable="0" parent="dOTpAhQKceL1h4nZkwgp-23">
          <mxGeometry x="0.088" y="-2" relative="1" as="geometry">
            <mxPoint y="1" as="offset" />
          </mxGeometry>
        </mxCell>
        <mxCell id="dOTpAhQKceL1h4nZkwgp-2" value="按钮组" style="rounded=0;whiteSpace=wrap;html=1;" vertex="1" parent="1">
          <mxGeometry x="520" y="180" width="120" height="60" as="geometry" />
        </mxCell>
        <mxCell id="dOTpAhQKceL1h4nZkwgp-10" style="edgeStyle=orthogonalEdgeStyle;rounded=0;orthogonalLoop=1;jettySize=auto;html=1;exitX=0.5;exitY=1;exitDx=0;exitDy=0;entryX=0.5;entryY=1;entryDx=0;entryDy=0;" edge="1" parent="1" source="dOTpAhQKceL1h4nZkwgp-3" target="dOTpAhQKceL1h4nZkwgp-8">
          <mxGeometry relative="1" as="geometry" />
        </mxCell>
        <mxCell id="dOTpAhQKceL1h4nZkwgp-26" value="表格选择" style="edgeLabel;html=1;align=center;verticalAlign=middle;resizable=0;points=[];" vertex="1" connectable="0" parent="dOTpAhQKceL1h4nZkwgp-10">
          <mxGeometry x="0.1517" y="-2" relative="1" as="geometry">
            <mxPoint y="1" as="offset" />
          </mxGeometry>
        </mxCell>
        <mxCell id="dOTpAhQKceL1h4nZkwgp-3" value="表格" style="rounded=0;whiteSpace=wrap;html=1;" vertex="1" parent="1">
          <mxGeometry x="20" y="280" width="460" height="200" as="geometry" />
        </mxCell>
        <mxCell id="dOTpAhQKceL1h4nZkwgp-18" style="edgeStyle=orthogonalEdgeStyle;rounded=0;orthogonalLoop=1;jettySize=auto;html=1;exitX=1;exitY=0.5;exitDx=0;exitDy=0;entryX=0;entryY=0.5;entryDx=0;entryDy=0;" edge="1" parent="1" source="dOTpAhQKceL1h4nZkwgp-4" target="dOTpAhQKceL1h4nZkwgp-8">
          <mxGeometry relative="1" as="geometry" />
        </mxCell>
        <mxCell id="dOTpAhQKceL1h4nZkwgp-25" value="操作" style="edgeLabel;html=1;align=center;verticalAlign=middle;resizable=0;points=[];" vertex="1" connectable="0" parent="dOTpAhQKceL1h4nZkwgp-18">
          <mxGeometry x="-0.0467" y="1" relative="1" as="geometry">
            <mxPoint y="1" as="offset" />
          </mxGeometry>
        </mxCell>
        <mxCell id="dOTpAhQKceL1h4nZkwgp-4" value="表格操作" style="rounded=0;whiteSpace=wrap;html=1;" vertex="1" parent="1">
          <mxGeometry x="520" y="280" width="130" height="200" as="geometry" />
        </mxCell>
        <mxCell id="dOTpAhQKceL1h4nZkwgp-5" value="复用之前表格的多选 hook" style="text;html=1;strokeColor=none;fillColor=none;align=center;verticalAlign=middle;whiteSpace=wrap;rounded=0;" vertex="1" parent="1">
          <mxGeometry x="40" y="300" width="130" height="30" as="geometry" />
        </mxCell>
        <mxCell id="dOTpAhQKceL1h4nZkwgp-14" style="edgeStyle=orthogonalEdgeStyle;rounded=0;orthogonalLoop=1;jettySize=auto;html=1;exitX=0.25;exitY=0;exitDx=0;exitDy=0;entryX=0.5;entryY=1;entryDx=0;entryDy=0;" edge="1" parent="1" source="dOTpAhQKceL1h4nZkwgp-8" target="dOTpAhQKceL1h4nZkwgp-13">
          <mxGeometry relative="1" as="geometry" />
        </mxCell>
        <mxCell id="dOTpAhQKceL1h4nZkwgp-15" style="edgeStyle=orthogonalEdgeStyle;rounded=0;orthogonalLoop=1;jettySize=auto;html=1;exitX=0.75;exitY=0;exitDx=0;exitDy=0;entryX=0.5;entryY=1;entryDx=0;entryDy=0;" edge="1" parent="1" source="dOTpAhQKceL1h4nZkwgp-8" target="dOTpAhQKceL1h4nZkwgp-12">
          <mxGeometry relative="1" as="geometry" />
        </mxCell>
        <mxCell id="dOTpAhQKceL1h4nZkwgp-8" value="更新状态" style="rounded=1;whiteSpace=wrap;html=1;" vertex="1" parent="1">
          <mxGeometry x="917" y="280" width="120" height="60" as="geometry" />
        </mxCell>
        <mxCell id="dOTpAhQKceL1h4nZkwgp-17" style="edgeStyle=orthogonalEdgeStyle;rounded=0;orthogonalLoop=1;jettySize=auto;html=1;exitX=0.5;exitY=0;exitDx=0;exitDy=0;entryX=1;entryY=0.5;entryDx=0;entryDy=0;" edge="1" parent="1" source="dOTpAhQKceL1h4nZkwgp-12" target="dOTpAhQKceL1h4nZkwgp-1">
          <mxGeometry relative="1" as="geometry" />
        </mxCell>
        <mxCell id="dOTpAhQKceL1h4nZkwgp-12" value="更新强分信息状态" style="rounded=1;whiteSpace=wrap;html=1;" vertex="1" parent="1">
          <mxGeometry x="960" y="50" width="80" height="60" as="geometry" />
        </mxCell>
        <mxCell id="dOTpAhQKceL1h4nZkwgp-19" style="edgeStyle=orthogonalEdgeStyle;rounded=0;orthogonalLoop=1;jettySize=auto;html=1;exitX=0;exitY=0.5;exitDx=0;exitDy=0;entryX=1;entryY=0.5;entryDx=0;entryDy=0;" edge="1" parent="1" source="dOTpAhQKceL1h4nZkwgp-13" target="dOTpAhQKceL1h4nZkwgp-2">
          <mxGeometry relative="1" as="geometry" />
        </mxCell>
        <mxCell id="dOTpAhQKceL1h4nZkwgp-13" value="更新按钮状态" style="rounded=1;whiteSpace=wrap;html=1;" vertex="1" parent="1">
          <mxGeometry x="827" y="120" width="90" height="60" as="geometry" />
        </mxCell>
        <mxCell id="dOTpAhQKceL1h4nZkwgp-27" value="使用 react-query 管理&lt;br&gt;所有要更新的场景，命令式的触发更新 命令式更新&lt;br&gt;这两个 query 的注册可以再顶层，根据 key 获取数据" style="text;html=1;strokeColor=none;fillColor=none;align=center;verticalAlign=middle;whiteSpace=wrap;rounded=0;" vertex="1" parent="1">
          <mxGeometry x="1071" y="272.5" width="170" height="75" as="geometry" />
        </mxCell>
        <mxCell id="dOTpAhQKceL1h4nZkwgp-30" value="待办 要注意的就是初始化的时候需要获取按钮状态，然后用户选了等级的时候也需要更新按钮状态，已有逻辑，可以直接复用" style="rounded=0;whiteSpace=wrap;html=1;" vertex="1" parent="1">
          <mxGeometry x="20" y="610" width="200" height="390" as="geometry" />
        </mxCell>
      </root>
    </mxGraphModel>
  </diagram>
</mxfile>
